<svg width="17" height="19" viewBox="0 0 17 19" fill="none" xmlns="http://www.w3.org/2000/svg">
<path d="M16.3354 10.7656C16.3354 10.4465 15.8881 10.416 15.7706 10.7126C15.6258 11.0783 15.4519 11.4391 15.2483 11.7917C13.2173 15.3095 9.00181 16.6781 5.83277 14.8484C2.66374 13.0187 1.74118 8.68374 3.77222 5.16594C3.91997 4.91002 3.63397 4.60955 3.40921 4.80141C1.72498 6.23914 0.657043 8.37753 0.657043 10.7656C0.657043 15.0951 4.16675 18.6048 8.4962 18.6048C12.8257 18.6048 16.3354 15.0951 16.3354 10.7656Z" fill="#6D6E71"/>
<path d="M10.0256 12.7941C9.3095 14.0346 7.72338 14.4596 6.48295 13.7434C5.24251 13.0272 4.81751 11.4411 5.5337 10.2007C6.24983 8.96026 7.83594 8.53531 9.07638 9.25144C10.3168 9.96757 10.7418 11.5537 10.0256 12.7941Z" fill="#6D6E71"/>
<path d="M12.5772 4.34854C10.9645 4.22133 10.025 2.17035 11.5891 1.75719C12.0084 1.64641 12.4405 1.57861 12.8696 1.5274C14.4285 1.34139 16.0691 2.90476 14.7808 3.80205C14.2836 4.14838 13.6886 4.36694 13.026 4.36694C12.8738 4.36694 12.7245 4.36017 12.5772 4.34854Z" fill="#ED1C24"/>
<path d="M8.02805 5.00839C7.595 5.00855 7.35134 4.30366 7.56182 3.92521C7.81901 3.46278 7.23042 3.25309 6.79381 3.55201C6.39618 3.82424 5.98718 4.16578 5.6064 4.57839C4.80739 5.44418 6.97455 6.5468 8.14486 6.41117C8.34784 6.38765 8.55531 6.37551 8.76665 6.37551C9.48878 6.37551 10.0846 5.58256 9.42053 5.29893C8.97672 5.10938 8.49973 5.00821 8.02805 5.00839Z" fill="#ED1C24"/>
<path d="M14.4914 5.21301C14.1688 5.36852 13.1751 7.07088 13.3506 7.38295C13.7218 8.04271 13.9933 8.86312 14.0131 9.86153C14.0229 10.3539 14.6312 10.6221 14.7909 10.1562C15.0533 9.39084 15.23 8.42908 15.1517 7.28232C15.097 6.48209 14.8155 5.79979 14.6446 5.45108C14.5753 5.3096 14.6333 5.14459 14.4914 5.21301Z" fill="#D1D3D4"/>
</svg>
